<?xml version="1.0" encoding="utf-8"?>
<!-- Generator: Adobe Illustrator 17.0.0, SVG Export Plug-In . SVG Version: 6.00 Build 0)  -->
<!DOCTYPE svg PUBLIC "-//W3C//DTD SVG 1.1//EN" "http://www.w3.org/Graphics/SVG/1.1/DTD/svg11.dtd">
<svg version="1.1" id="Layer_1" xmlns="http://www.w3.org/2000/svg" xmlns:xlink="http://www.w3.org/1999/xlink" x="0px" y="0px"
	 width="212.539px" height="212.538px" viewBox="0 0 212.539 212.538" enable-background="new 0 0 212.539 212.538"
	 xml:space="preserve">
<rect x="3.569" y="3.269" fill="#FFFFFF" width="205.441" height="209.269"/>
<g>
	<path fill="#040404" d="M69.366,40.2l0.213,0.72c-1.475,0.758-3.029,1.377-4.66,1.857c-1.631,0.479-3.312,0.72-5.042,0.72
		c-1.873,0-3.327-0.297-4.362-0.891c-1.035-0.593-1.553-1.434-1.553-2.521c0-0.555,0.156-1.308,0.468-2.256
		c0.312-0.948,0.865-2.344,1.659-4.189c1.164-2.704,2.447-5.333,3.851-7.886c1.405-2.552,3.128-4.966,5.171-7.242
		c-0.88,0.253-1.823,0.847-2.83,1.782c-1.007,0.936-2.022,2.06-3.042,3.374c-0.767,1.012-1.533,2.098-2.299,3.26
		c-0.765,1.162-1.517,2.338-2.255,3.526c-1.219,2.047-2.325,4.025-3.318,5.933c-0.993,1.908-1.745,3.406-2.255,4.493l-7.489,2.085
		l10-23.771l0.17-0.644c0-0.101-0.05-0.202-0.149-0.303c-0.099-0.1-0.22-0.151-0.361-0.151c-0.284,0-0.589,0.133-0.915,0.399
		c-0.326,0.266-0.66,0.6-0.999,1.004c-0.256,0.329-0.504,0.683-0.745,1.062c-0.241,0.379-0.475,0.758-0.702,1.137
		c-0.313,0.531-0.603,1.036-0.872,1.516c-0.27,0.481-0.489,0.898-0.66,1.251l-2.978,5.951c-0.341,0.733-0.766,1.549-1.277,2.446
		c-0.511,0.898-1.092,1.813-1.745,2.749c-1.306,1.896-2.844,3.634-4.617,5.213c-1.774,1.579-3.695,2.369-5.767,2.369
		c-0.624,0-1.233-0.082-1.83-0.246c-0.596-0.164-1.177-0.41-1.745-0.739c-0.34-0.202-0.602-0.512-0.787-0.929
		c-0.185-0.417-0.333-0.852-0.447-1.307c-0.056-0.329-0.106-0.644-0.15-0.947c-0.042-0.303-0.077-0.568-0.106-0.796
		c0-0.126,0.029-0.234,0.085-0.322c0.057-0.088,0.128-0.133,0.213-0.133c0.086,0,0.156,0.019,0.212,0.057
		c0.057,0.038,0.114,0.094,0.171,0.17c0.029,0.05,0.057,0.107,0.085,0.17c0.029,0.063,0.072,0.132,0.128,0.208
		c0.369,0.733,0.887,1.408,1.552,2.028c0.667,0.619,1.356,1.08,2.065,1.383c0.284,0.101,0.56,0.184,0.83,0.247
		c0.269,0.063,0.531,0.094,0.787,0.094c0.369,0,0.716-0.051,1.042-0.151c0.327-0.101,0.645-0.265,0.958-0.493
		c0.539-0.429,1.106-1.118,1.703-2.065c0.596-0.948,1.319-2.281,2.17-4l2.085-4.208c0.397-0.758,0.844-1.611,1.341-2.559
		c0.497-0.948,1.042-1.927,1.639-2.939c1.305-2.097,2.865-4.03,4.681-5.8c1.816-1.77,3.915-2.654,6.299-2.654
		c1.277,0,2.304,0.298,3.085,0.891c0.78,0.594,1.171,1.37,1.171,2.33c0,0.152-0.015,0.31-0.043,0.474
		c-0.028,0.165-0.056,0.335-0.085,0.511c-0.029,0.102-0.057,0.209-0.086,0.322c-0.029,0.114-0.071,0.222-0.127,0.322l-6.383,14.248
		l0.128,0.038c0.567-0.96,1.247-2.21,2.042-3.752c0.794-1.54,1.688-3.145,2.682-4.813c1.559-2.602,3.339-4.989,5.338-7.162
		c1.999-2.173,4.135-3.259,6.405-3.259c0.738,0,1.326,0.145,1.766,0.436c0.439,0.29,0.66,0.688,0.66,1.194l-0.17,0.682l-4.511,9.509
		c-0.227,0.531-0.532,1.201-0.915,2.011c-0.383,0.809-0.787,1.682-1.213,2.618c-0.114,0.228-0.214,0.449-0.299,0.664
		c-0.086,0.215-0.185,0.437-0.297,0.664c-0.511,1.189-0.958,2.334-1.341,3.434c-0.383,1.1-0.574,1.954-0.574,2.561
		c0,0.405,0.184,0.727,0.553,0.966c0.369,0.24,0.823,0.36,1.362,0.36c0.822,0,1.858-0.202,3.107-0.606
		c1.248-0.404,2.624-0.96,4.128-1.668V40.2z"/>
	<path fill="#040404" d="M85.74,39.172c-0.142,0.353-0.242,0.625-0.298,0.813c-0.056,0.189-0.085,0.359-0.085,0.511
		c0,0.403,0.162,0.731,0.489,0.983c0.326,0.253,0.73,0.378,1.213,0.378c0.426,0,0.95-0.082,1.575-0.247
		c0.624-0.164,1.262-0.385,1.915-0.662c0.369-0.151,0.73-0.322,1.085-0.511c0.355-0.19,0.702-0.386,1.043-0.588l0.34,0.417
		c-0.795,0.581-1.653,1.074-2.574,1.478c-0.923,0.404-1.866,0.72-2.83,0.947c-0.54,0.101-1.064,0.183-1.575,0.246
		c-0.511,0.062-1.022,0.094-1.533,0.094c-1.165,0-2.117-0.126-2.857-0.379c-0.739-0.253-1.35-0.682-1.832-1.289
		c-0.426,0.253-0.838,0.474-1.236,0.663c-0.398,0.19-0.795,0.348-1.193,0.474c-0.569,0.203-1.151,0.341-1.748,0.417
		c-0.597,0.075-1.222,0.113-1.875,0.113c-1.392,0-2.615-0.265-3.666-0.794c-1.051-0.53-1.577-1.513-1.577-2.951
		c0-0.58,0.093-1.216,0.277-1.91c0.184-0.694,0.462-1.394,0.831-2.1c0.341-0.68,0.739-1.342,1.194-1.986
		c0.454-0.643,0.938-1.242,1.45-1.796c1.022-1.084,2.23-1.917,3.623-2.497c1.392-0.58,2.87-0.871,4.433-0.871
		c0.909,0,1.641,0.089,2.196,0.266c0.554,0.177,1.016,0.48,1.385,0.909l6.471-1.137L85.74,39.172z M82.357,29.131
		c-0.383-0.164-0.787-0.246-1.212-0.246c-0.341,0-0.66,0.057-0.958,0.17c-0.298,0.114-0.589,0.296-0.872,0.548
		c-0.314,0.303-0.636,0.726-0.964,1.268c-0.328,0.542-0.706,1.242-1.134,2.099c-0.771,1.513-1.392,2.925-1.862,4.237
		c-0.471,1.311-0.706,2.256-0.706,2.836c0,0.555,0.164,0.997,0.492,1.324c0.328,0.328,0.763,0.492,1.306,0.492
		c0.456,0,0.898-0.088,1.327-0.265c0.428-0.177,0.842-0.366,1.242-0.567c0.085-0.05,0.17-0.101,0.256-0.151
		c0.085-0.05,0.171-0.101,0.256-0.152L79.4,39.929c0-0.126,0.014-0.29,0.042-0.492c0.028-0.202,0.071-0.403,0.128-0.606
		c0.056-0.15,0.106-0.296,0.148-0.434c0.043-0.138,0.092-0.271,0.149-0.397l3.49-8.168C83.074,29.529,82.74,29.295,82.357,29.131z"
		/>
	<path fill="#040404" d="M117.19,39.843l0.341,0.455c-1.306,0.96-2.646,1.649-4.021,2.066c-1.376,0.417-2.957,0.625-4.745,0.625
		c-1.306,0-2.355-0.126-3.149-0.379c-0.795-0.252-1.433-0.657-1.915-1.213c-0.965,0.556-2.015,0.967-3.149,1.232
		c-1.135,0.265-2.312,0.398-3.532,0.398c-1.56,0-2.731-0.31-3.511-0.93c-0.781-0.62-1.171-1.55-1.171-2.79
		c0-0.531,0.057-1.082,0.17-1.652c0.114-0.57,0.284-1.145,0.511-1.728c0.823-2,2.199-3.828,4.127-5.486
		c1.929-1.658,4.114-2.487,6.554-2.487c0.652,0,1.248,0.057,1.787,0.171c0.538,0.114,1.05,0.31,1.532,0.587
		c0.085,0.05,0.177,0.107,0.276,0.17c0.1,0.063,0.192,0.12,0.277,0.171l4.128-10.386l6.766-1.099l-8.639,21.861
		c-0.114,0.278-0.19,0.506-0.233,0.682c-0.043,0.176-0.063,0.341-0.063,0.492c0,0.455,0.176,0.802,0.531,1.042
		c0.355,0.24,0.844,0.36,1.469,0.36c0.765,0,1.63-0.177,2.595-0.53c0.964-0.353,1.986-0.884,3.064-1.591V39.843z M106.849,29.281
		c0,0-0.206-0.107-0.617-0.323c-0.412-0.215-0.873-0.323-1.383-0.323c-0.34,0-0.66,0.064-0.958,0.19
		c-0.298,0.126-0.589,0.329-0.872,0.608c-0.426,0.405-0.866,1.013-1.319,1.823c-0.455,0.81-0.965,1.886-1.532,3.228
		c-0.682,1.596-1.135,2.76-1.362,3.494c-0.227,0.735-0.355,1.379-0.383,1.936c0,0.026,0,0.051,0,0.076c0,0.026,0,0.051,0,0.076
		c0,0.558,0.184,1.001,0.553,1.329c0.369,0.329,0.865,0.494,1.489,0.494c0.199,0,0.397-0.013,0.596-0.038
		c0.198-0.025,0.397-0.076,0.596-0.152c0.312-0.1,0.617-0.234,0.915-0.399c0.297-0.164,0.602-0.374,0.915-0.627l-0.086-0.684
		c0-0.025,0-0.05,0-0.076c0-0.126,0.029-0.271,0.085-0.436c0.056-0.164,0.141-0.399,0.256-0.704l3.533-8.849
		C106.991,29.496,106.849,29.281,106.849,29.281z"/>
	<path fill="#040404" d="M133.918,39.811l0.34,0.455c-1.532,0.96-3.113,1.661-4.745,2.104c-1.632,0.442-3.369,0.663-5.213,0.663
		c-0.426,0-0.879-0.013-1.362-0.038c-0.482-0.026-0.978-0.063-1.49-0.113c-1.22-0.151-2.326-0.492-3.319-1.023
		c-0.993-0.53-1.489-1.389-1.489-2.576c0-0.227,0.014-0.46,0.042-0.701c0.03-0.24,0.057-0.473,0.085-0.701
		c0.453-2.4,1.856-4.609,4.209-6.63c2.352-2.021,4.903-3.119,7.652-3.297c0.085,0,0.177,0,0.276,0c0.099,0,0.206,0,0.318,0
		c1.162,0,2.048,0.253,2.657,0.758c0.61,0.505,0.915,1.238,0.915,2.197c0,0.127-0.007,0.26-0.021,0.399
		c-0.014,0.139-0.036,0.284-0.064,0.435c-0.199,1.187-0.717,2.293-1.554,3.316c-0.837,1.023-1.751,1.648-2.744,1.875
		c-0.114,0.026-0.22,0.045-0.319,0.057c-0.099,0.013-0.206,0.019-0.318,0.019c-0.484,0-0.895-0.151-1.235-0.455
		c-0.34-0.303-0.511-0.657-0.511-1.061c0-0.682,0.291-1.263,0.873-1.743c0.581-0.48,1.227-0.921,1.936-1.326
		c0.113-0.05,0.233-0.113,0.361-0.189c0.128-0.076,0.263-0.151,0.404-0.228c0.539-0.329,1.008-0.663,1.405-1.004
		c0.396-0.341,0.596-0.726,0.596-1.156c0-0.303-0.121-0.555-0.361-0.757c-0.241-0.202-0.53-0.303-0.87-0.303
		c-1.359,0-2.583,0.657-3.674,1.97c-1.09,1.313-1.96,2.753-2.611,4.319c-0.397,0.934-0.701,1.844-0.914,2.728
		c-0.212,0.884-0.318,1.63-0.318,2.236c0,0.732,0.249,1.295,0.745,1.686c0.496,0.392,1.227,0.587,2.192,0.587
		c0.085,0,0.162,0,0.233,0c0.071,0,0.135,0,0.192,0c1.106-0.05,2.255-0.265,3.447-0.644c1.191-0.379,2.609-0.985,4.256-1.819V39.811
		z"/>
	<path fill="#040404" d="M150.887,39.172c-0.142,0.353-0.241,0.625-0.298,0.813c-0.057,0.189-0.085,0.359-0.085,0.511
		c0,0.403,0.163,0.731,0.489,0.983c0.326,0.253,0.731,0.378,1.213,0.378c0.427,0,0.951-0.082,1.575-0.247
		c0.623-0.164,1.262-0.385,1.915-0.662c0.369-0.151,0.731-0.322,1.086-0.511c0.354-0.19,0.702-0.386,1.044-0.588l0.339,0.417
		c-0.794,0.581-1.652,1.074-2.574,1.478c-0.923,0.404-1.865,0.72-2.83,0.947c-0.539,0.101-1.064,0.183-1.575,0.246
		c-0.511,0.062-1.022,0.094-1.534,0.094c-1.165,0-2.117-0.126-2.856-0.379c-0.739-0.253-1.349-0.682-1.832-1.289
		c-0.427,0.253-0.838,0.474-1.236,0.663c-0.398,0.19-0.796,0.348-1.194,0.474c-0.569,0.203-1.152,0.341-1.747,0.417
		c-0.597,0.075-1.222,0.113-1.875,0.113c-1.392,0-2.616-0.265-3.666-0.794c-1.052-0.53-1.577-1.513-1.577-2.951
		c0-0.58,0.093-1.216,0.276-1.91c0.185-0.694,0.462-1.394,0.832-2.1c0.341-0.68,0.739-1.342,1.194-1.986
		c0.454-0.643,0.938-1.242,1.45-1.796c1.022-1.084,2.23-1.917,3.622-2.497c1.392-0.58,2.87-0.871,4.434-0.871
		c0.909,0,1.641,0.089,2.195,0.266c0.553,0.177,1.016,0.48,1.385,0.909l6.47-1.137L150.887,39.172z M147.504,29.131
		c-0.383-0.164-0.788-0.246-1.213-0.246c-0.341,0-0.66,0.057-0.958,0.17c-0.298,0.114-0.588,0.296-0.872,0.548
		c-0.314,0.303-0.637,0.726-0.964,1.268c-0.328,0.542-0.706,1.242-1.134,2.099c-0.771,1.513-1.391,2.925-1.863,4.237
		c-0.47,1.311-0.706,2.256-0.706,2.836c0,0.555,0.164,0.997,0.492,1.324c0.328,0.328,0.764,0.492,1.306,0.492
		c0.457,0,0.899-0.088,1.327-0.265c0.428-0.177,0.842-0.366,1.242-0.567c0.086-0.05,0.171-0.101,0.256-0.151
		c0.086-0.05,0.171-0.101,0.257-0.152l-0.128-0.794c0-0.126,0.013-0.29,0.042-0.492c0.028-0.202,0.071-0.403,0.128-0.606
		c0.057-0.15,0.106-0.296,0.149-0.434c0.043-0.138,0.091-0.271,0.149-0.397l3.489-8.168
		C148.22,29.529,147.887,29.295,147.504,29.131z"/>
	<path fill="#040404" d="M171.515,27.909l-0.468,1.251c0.537-0.025,0.991-0.056,1.36-0.094c0.369-0.038,0.738-0.069,1.107-0.095
		c0.084,0,0.177,0,0.275,0c0.099,0,0.207,0,0.32,0c1.9,0,3.375,0.387,4.425,1.158c1.049,0.771,1.574,1.853,1.574,3.244
		c0,1.822-0.688,3.397-2.064,4.725c-1.375,1.328-2.886,2.41-4.53,3.244c-0.114,0.076-0.241,0.146-0.383,0.209
		c-0.142,0.063-0.27,0.12-0.383,0.17c0.822,0.354,1.623,0.632,2.403,0.834c0.78,0.203,1.482,0.303,2.106,0.303
		c0.964,0,1.964-0.245,2.999-0.739c1.036-0.492,2.205-1.269,3.511-2.33l0.469,0.454c-0.114,0.102-0.221,0.19-0.319,0.266
		c-0.099,0.076-0.192,0.152-0.276,0.227c-1.078,0.758-2.178,1.427-3.299,2.009c-1.12,0.581-2.405,0.871-3.85,0.871
		c-0.964,0-1.922-0.089-2.872-0.265c-0.95-0.177-1.893-0.443-2.828-0.796c-0.624,0.203-1.234,0.359-1.83,0.473
		c-0.596,0.113-1.177,0.209-1.744,0.285c-0.312,0.025-0.61,0.05-0.894,0.075c-0.283,0.025-0.581,0.038-0.892,0.038l-1.872,4.926
		l-6.807,1.895l2.935-7.39c-0.708-0.179-1.24-0.46-1.594-0.845c-0.355-0.384-0.531-0.82-0.531-1.307
		c0-0.614,0.241-1.049,0.723-1.306c0.482-0.256,1.021-0.423,1.617-0.5c0.255-0.025,0.495-0.044,0.723-0.057
		c0.227-0.013,0.44-0.02,0.639-0.02l3.021-7.739c-1.192,0.73-2.269,1.687-3.233,2.87c-0.964,1.183-1.701,2.467-2.211,3.851
		l-0.128-1.246c0-1.233,0.475-2.322,1.424-3.266c0.951-0.944,2.007-1.73,3.17-2.36c0.227-0.126,0.446-0.245,0.66-0.359
		c0.212-0.113,0.432-0.22,0.659-0.321l0.468-1.208L171.515,27.909z M159.667,39.978c-0.355,0.314-0.531,0.706-0.531,1.175
		c0,0.278,0.064,0.512,0.19,0.701c0.128,0.19,0.319,0.36,0.575,0.511l1.106-2.897C160.468,39.495,160.021,39.665,159.667,39.978z
		 M166.877,42.783c0.355-0.05,0.702-0.139,1.044-0.266c0.227-0.076,0.452-0.164,0.68-0.266c0.227-0.1,0.454-0.227,0.681-0.379
		c-0.256-0.151-0.518-0.284-0.788-0.398c-0.27-0.113-0.546-0.221-0.83-0.322c-0.199-0.076-0.391-0.151-0.574-0.228
		c-0.185-0.075-0.362-0.151-0.532-0.228l-0.85,2.122C166.133,42.846,166.523,42.833,166.877,42.783z M167.83,39.903
		c0.298,0.088,0.589,0.184,0.873,0.284c0.283,0.101,0.575,0.197,0.874,0.285c0.297,0.088,0.588,0.183,0.872,0.284
		c0.426-0.53,0.816-1.08,1.17-1.648c0.355-0.568,0.674-1.143,0.958-1.724c0.454-0.884,0.801-1.743,1.043-2.577
		c0.241-0.834,0.363-1.591,0.363-2.274c0-0.858-0.221-1.528-0.661-2.008c-0.44-0.48-1.028-0.72-1.765-0.72l-0.852,0.038
		l-3.745,9.739C167.241,39.707,167.532,39.814,167.83,39.903z"/>
</g>
<g>
	<path fill="#040404" d="M208.97,205.401H3.569l3.569,3.568V3.569L3.569,7.137H208.97l-3.569-3.568V208.97L208.97,205.401z
		 M208.97,0H3.569H0v3.569V208.97v3.569h3.569H208.97h3.569v-3.569V3.569V0H208.97z"/>
</g>
<g>
	<path fill="#010101" d="M47.657,190.079l0.253,0.61c-2.052,0.889-4.188,1.601-6.408,2.134c-2.221,0.533-4.483,0.8-6.787,0.8
		c-4.076,0-7.322-0.961-9.74-2.883c-2.417-1.92-3.625-4.497-3.625-7.73c0-4.198,1.917-7.92,5.754-11.165
		c3.835-3.244,8.241-4.867,13.216-4.867c2.445,0,4.342,0.592,5.691,1.775c1.348,1.183,2.024,2.842,2.024,4.979
		c0,0.203-0.007,0.407-0.021,0.611c-0.014,0.203-0.034,0.406-0.062,0.609c-0.365,2.823-1.809,5.437-4.332,7.841
		c-2.523,2.404-5.257,3.783-8.201,4.139c-0.197,0.025-0.4,0.045-0.61,0.059c-0.211,0.012-0.414,0.018-0.61,0.018
		c-1.29,0-2.342-0.285-3.155-0.857c-0.814-0.571-1.219-1.302-1.219-2.19c0-0.483,0.098-0.997,0.295-1.543
		c0.197-0.546,0.464-1.099,0.801-1.657c0.421-0.66,0.921-1.314,1.497-1.962c0.576-0.647,1.216-1.225,1.918-1.734
		c1.04-0.761,2.172-1.448,3.394-2.057c1.222-0.61,2.564-1.156,4.026-1.64l0.253,0.533c-0.619,0.305-1.35,0.699-2.193,1.182
		c-0.843,0.483-1.714,1.028-2.614,1.638c-0.956,0.66-1.883,1.377-2.783,2.151c-0.9,0.775-1.658,1.556-2.277,2.344
		c-0.393,0.508-0.71,1.023-0.948,1.543c-0.239,0.52-0.359,1.022-0.359,1.505c0,0.508,0.175,0.927,0.525,1.257
		c0.351,0.33,0.805,0.495,1.366,0.495c0.673,0,1.401-0.165,2.186-0.496c0.784-0.33,1.57-0.788,2.354-1.374
		c1.092-0.788,2.157-1.748,3.194-2.88c1.037-1.132,1.962-2.283,2.776-3.453c0.813-1.196,1.464-2.347,1.954-3.453
		c0.49-1.107,0.736-2.054,0.736-2.843c0-1.119-0.394-2.041-1.181-2.766c-0.787-0.725-1.771-1.088-2.95-1.088
		c-2.558,0-4.961,1.203-7.209,3.608c-2.248,2.406-4.061,5.059-5.438,7.96c-0.731,1.552-1.308,3.073-1.729,4.562
		c-0.422,1.489-0.632,2.781-0.632,3.875c0,1.807,0.71,3.099,2.129,3.875c1.42,0.776,2.972,1.203,4.659,1.279
		c0.112,0.025,0.231,0.038,0.358,0.038c0.127,0,0.26,0,0.4,0c2.305,0,4.568-0.272,6.788-0.819c2.221-0.546,4.398-1.188,6.535-1.924
		V190.079z"/>
	<path fill="#010101" d="M69.159,186.779l0.169,0.61c-0.337,0.127-0.647,0.229-0.928,0.305c-0.281,0.076-0.535,0.14-0.759,0.19
		c-0.226,0.026-0.457,0.045-0.696,0.058c-0.238,0.012-0.498,0.019-0.78,0.019c-0.365,0-0.696-0.013-0.99-0.038
		c-0.295-0.025-0.583-0.063-0.863-0.114c-0.197-0.026-0.399-0.064-0.611-0.114c-0.21-0.051-0.427-0.115-0.651-0.191
		c-1.205,1.957-2.586,3.387-4.142,4.289c-1.556,0.903-3.4,1.354-5.531,1.354c-2.159,0-3.751-0.355-4.774-1.064
		s-1.534-1.799-1.534-3.269c0-0.33,0.021-0.652,0.063-0.969c0.042-0.317,0.091-0.639,0.147-0.969
		c0.393-1.571,1.209-3.079,2.445-4.522c1.237-1.444,2.671-2.547,4.301-3.307c0.197-0.102,0.4-0.19,0.611-0.267
		c0.211-0.076,0.415-0.152,0.611-0.228c0.45-0.152,0.878-0.279,1.286-0.381c0.407-0.101,0.738-0.152,0.991-0.152
		c0.14,0,0.245,0.026,0.315,0.076c0.07,0.051,0.106,0.114,0.106,0.19c0,0.051-0.267,0.482-0.801,1.292
		c-0.534,0.811-1.11,1.812-1.729,3.002c-0.365,0.634-0.71,1.299-1.033,1.995c-0.323,0.698-0.597,1.413-0.822,2.148
		c-0.225,0.608-0.4,1.223-0.527,1.844c-0.127,0.621-0.19,1.221-0.19,1.805c0,0.609,0.153,1.097,0.46,1.464
		c0.307,0.367,0.711,0.551,1.214,0.551c0.921,0,1.752-0.367,2.492-1.102c0.741-0.735,1.377-1.533,1.911-2.396
		c0.281-0.456,0.526-0.906,0.737-1.349c0.21-0.443,0.4-0.829,0.57-1.16c-0.788-0.861-1.385-1.742-1.792-2.642
		c-0.408-0.9-0.611-1.845-0.611-2.833c0-1.267,0.302-2.274,0.905-3.022c0.603-0.748,1.397-1.122,2.379-1.122
		c1.151,0,2.063,0.424,2.738,1.272c0.674,0.849,1.011,1.994,1.011,3.436c0,0.937-0.119,1.855-0.358,2.753
		c-0.239,0.899-0.623,1.791-1.156,2.676c0.224,0.076,0.427,0.139,0.609,0.19c0.182,0.05,0.358,0.102,0.526,0.152
		c0.224,0.051,0.448,0.082,0.674,0.095c0.225,0.013,0.477,0.018,0.758,0.018c0.253,0,0.485-0.005,0.696-0.018
		c0.211-0.013,0.414-0.032,0.612-0.058c0.281-0.025,0.568-0.076,0.863-0.152c0.295-0.076,0.654-0.178,1.076-0.305V186.779z
		 M60.517,185.372c0.168-0.685,0.315-1.384,0.442-2.096c0.126-0.712,0.189-1.423,0.189-2.134c0-1.118-0.099-1.975-0.294-2.572
		c-0.196-0.597-0.49-0.896-0.883-0.896c-0.364,0-0.659,0.216-0.882,0.648c-0.224,0.432-0.336,1.003-0.336,1.714
		c0,0.304,0.02,0.616,0.062,0.934c0.042,0.318,0.105,0.642,0.19,0.972c0.14,0.661,0.342,1.296,0.609,1.906
		c0.266,0.609,0.568,1.13,0.904,1.562V185.372z"/>
	<path fill="#010101" d="M74.472,189.415c-0.085,0.28-0.155,0.528-0.211,0.743c-0.056,0.215-0.084,0.4-0.084,0.552
		c0,0.406,0.154,0.736,0.464,0.989c0.309,0.254,0.702,0.381,1.18,0.381c0.646,0,1.44-0.178,2.382-0.534
		c0.942-0.355,1.975-0.864,3.1-1.525l0.379,0.419c-1.097,0.738-2.242,1.322-3.436,1.754c-1.195,0.431-2.396,0.723-3.605,0.875
		c-0.253,0.025-0.514,0.045-0.78,0.058c-0.267,0.012-0.541,0.019-0.822,0.019c-1.518,0-2.685-0.248-3.5-0.742
		c-0.815-0.495-1.222-1.212-1.222-2.151c0-0.228,0.021-0.495,0.063-0.799c0.042-0.304,0.119-0.621,0.232-0.951
		c0.028-0.076,0.056-0.158,0.084-0.248c0.028-0.089,0.057-0.171,0.085-0.247l7.421-19.22l6.745-1.334L74.472,189.415z"/>
	<path fill="#010101" d="M87.415,189.415c-0.085,0.28-0.156,0.528-0.211,0.743s-0.084,0.4-0.084,0.552
		c0,0.406,0.155,0.736,0.464,0.989c0.309,0.254,0.703,0.381,1.18,0.381c0.646,0,1.44-0.178,2.382-0.534
		c0.941-0.355,1.974-0.864,3.1-1.525l0.379,0.419c-1.096,0.738-2.242,1.322-3.436,1.754c-1.195,0.431-2.396,0.723-3.605,0.875
		c-0.253,0.025-0.514,0.045-0.78,0.058c-0.267,0.012-0.541,0.019-0.821,0.019c-1.518,0-2.685-0.248-3.501-0.742
		c-0.815-0.495-1.222-1.212-1.222-2.151c0-0.228,0.021-0.495,0.063-0.799c0.042-0.304,0.119-0.621,0.232-0.951
		c0.028-0.076,0.056-0.158,0.084-0.248c0.028-0.089,0.056-0.171,0.084-0.247l7.421-19.22l6.746-1.334L87.415,189.415z"/>
	<path fill="#010101" d="M111.341,189.793l0.337,0.533c-0.534,0.33-1.054,0.623-1.56,0.877c-0.506,0.254-1.012,0.482-1.518,0.685
		c-1.209,0.458-2.438,0.782-3.689,0.972c-1.251,0.19-2.649,0.286-4.195,0.286c-0.309,0-0.64-0.007-0.991-0.019
		c-0.351-0.013-0.695-0.032-1.032-0.057c-1.153-0.127-2.206-0.431-3.162-0.913c-0.955-0.482-1.434-1.344-1.434-2.587
		c0-0.583,0.099-1.267,0.295-2.054c0.197-0.786,0.492-1.673,0.886-2.663c0.842-2.053,2.1-3.714,3.771-4.982
		c1.671-1.268,3.772-1.902,6.3-1.902c1.292,0,2.275,0.222,2.949,0.666c0.674,0.444,1.011,1.11,1.011,1.996
		c0,0.102-0.007,0.197-0.021,0.285c-0.013,0.09-0.021,0.185-0.021,0.286c-0.197,1.318-1.075,2.592-2.633,3.822
		c-1.559,1.23-3.601,2.276-6.128,3.137c-0.056,0.305-0.099,0.551-0.127,0.742c-0.028,0.19-0.042,0.374-0.042,0.551
		c0,0.025,0,0.057,0,0.095c0,0.039,0,0.07,0,0.095c0,0.811,0.288,1.452,0.864,1.921c0.576,0.469,1.37,0.703,2.382,0.703
		c1.153,0,2.389-0.21,3.71-0.629c1.321-0.419,2.671-1.022,4.048-1.81V189.793z M100.707,187.382
		c0.337-0.228,0.738-0.552,1.202-0.972c0.464-0.419,0.948-0.896,1.455-1.429c0.309-0.305,0.604-0.628,0.885-0.972
		c0.282-0.343,0.562-0.679,0.844-1.01c0.534-0.686,0.976-1.359,1.327-2.02c0.351-0.66,0.528-1.219,0.528-1.678
		c0-0.254-0.092-0.464-0.274-0.629c-0.182-0.165-0.401-0.248-0.654-0.248c-0.084,0-0.161,0.007-0.232,0.019
		c-0.071,0.013-0.133,0.033-0.189,0.058c-0.618,0.229-1.217,0.8-1.792,1.715c-0.576,0.914-1.103,1.905-1.58,2.972
		c-0.366,0.838-0.683,1.646-0.949,2.421c-0.267,0.774-0.457,1.378-0.569,1.809V187.382z"/>
	<path fill="#010101" d="M122.746,186.906c-0.113,0.026-0.218,0.045-0.317,0.058c-0.099,0.013-0.205,0.018-0.317,0.018
		c-0.478,0-0.885-0.152-1.223-0.457c-0.336-0.305-0.505-0.66-0.505-1.067c0-0.685,0.288-1.27,0.865-1.753
		c0.576-0.482,1.215-0.927,1.918-1.334c0.113-0.05,0.231-0.114,0.359-0.19c0.126-0.076,0.26-0.153,0.401-0.229
		c0.535-0.33,0.997-0.666,1.391-1.01c0.393-0.342,0.59-0.729,0.59-1.162c0-0.305-0.12-0.558-0.358-0.762
		c-0.238-0.203-0.527-0.304-0.862-0.304c-1.348,0-2.561,0.661-3.639,1.983c-1.079,1.321-1.942,2.771-2.587,4.347
		c-0.393,0.942-0.694,1.856-0.905,2.746c-0.21,0.89-0.315,1.64-0.315,2.249c0,0.738,0.246,1.303,0.738,1.698
		c0.492,0.394,1.215,0.591,2.172,0.591c0.083,0,0.16,0,0.231,0c0.072,0,0.134,0,0.19,0c1.095-0.051,2.233-0.267,3.415-0.648
		c1.18-0.38,2.586-0.991,4.216-1.83v-0.038l0.337,0.457c-1.518,0.966-3.085,1.67-4.702,2.115c-1.616,0.445-3.337,0.667-5.164,0.667
		c-0.422,0-0.872-0.014-1.349-0.038c-0.478-0.026-0.969-0.064-1.475-0.114c-1.209-0.153-2.304-0.496-3.288-1.029
		c-0.984-0.535-1.475-1.398-1.475-2.593c0-0.229,0.014-0.464,0.042-0.706c0.028-0.241,0.057-0.477,0.084-0.706
		c0.45-2.414,1.838-4.64,4.168-6.674c2.33-2.034,4.856-3.14,7.58-3.318c0.083,0,0.174,0,0.274,0c0.097,0,0.203,0,0.316,0
		c1.151,0,2.028,0.254,2.632,0.762c0.604,0.508,0.906,1.245,0.906,2.21c0,0.127-0.007,0.26-0.021,0.4
		c-0.013,0.14-0.035,0.286-0.064,0.439c-0.196,1.194-0.709,2.305-1.539,3.334C124.636,186.048,123.73,186.677,122.746,186.906"/>
	<path fill="#010101" d="M140.884,171.174l-3.163,8.117h3.205l-1.18,1.535h-2.572l-3.373,8.689c-0.113,0.279-0.19,0.521-0.232,0.725
		c-0.043,0.204-0.063,0.407-0.063,0.61c0,0.406,0.139,0.723,0.421,0.953c0.281,0.229,0.66,0.342,1.139,0.342
		c0.393,0,0.792-0.043,1.201-0.133c0.407-0.089,0.836-0.197,1.286-0.324c0.449-0.152,0.906-0.33,1.37-0.534
		c0.464-0.203,0.907-0.418,1.328-0.647c0.197-0.101,0.402-0.203,0.612-0.305c0.21-0.102,0.4-0.204,0.569-0.306l0.338,0.419
		c-0.872,0.559-1.765,1.036-2.677,1.43c-0.915,0.394-1.834,0.705-2.762,0.934c-0.619,0.127-1.236,0.228-1.855,0.305
		c-0.618,0.075-1.222,0.114-1.813,0.114c-1.574,0-2.804-0.267-3.69-0.801c-0.884-0.534-1.328-1.271-1.328-2.212
		c0-0.204,0.029-0.426,0.084-0.668c0.056-0.241,0.127-0.489,0.211-0.744c0-0.051,0.008-0.102,0.021-0.152
		c0.014-0.05,0.036-0.102,0.063-0.153l2.952-7.628h-2.403l1.18-1.488h1.77l2.657-6.898L140.884,171.174z"/>
	<path fill="#010101" d="M147.555,189.345c-0.085,0.279-0.156,0.541-0.212,0.781c-0.055,0.242-0.084,0.477-0.084,0.705
		c0,0.407,0.141,0.724,0.422,0.953c0.282,0.229,0.689,0.342,1.222,0.342c0.758,0,1.483-0.159,2.172-0.477
		c0.689-0.317,1.342-0.68,1.96-1.086c0.224-0.126,0.443-0.253,0.653-0.38c0.211-0.127,0.429-0.254,0.655-0.381l0.378,0.343
		c-1.264,1.017-2.55,1.747-3.858,2.192c-1.307,0.444-2.718,0.667-4.237,0.667c-1.686,0-3.006-0.235-3.963-0.705
		c-0.955-0.47-1.433-1.137-1.433-2.001c0-0.203,0.029-0.426,0.083-0.667c0.057-0.241,0.114-0.488,0.171-0.742
		c0-0.051,0.006-0.102,0.02-0.153c0.014-0.05,0.036-0.102,0.063-0.153l3.794-9.451l6.746-1.258L147.555,189.345z M153.672,170.186
		c0.689,0.623,1.034,1.379,1.034,2.268c0,0.864-0.345,1.608-1.034,2.229c-0.689,0.623-1.525,0.934-2.508,0.934
		c-0.956,0-1.778-0.313-2.467-0.938c-0.689-0.626-1.032-1.374-1.032-2.244c0-0.894,0.343-1.654,1.032-2.28
		c0.689-0.626,1.511-0.94,2.467-0.94C152.148,169.24,152.983,169.564,153.672,170.186z"/>
	<path fill="#010101" d="M164.567,178.531l-4.427,10.893c-0.14,0.355-0.246,0.673-0.317,0.952c-0.071,0.28-0.105,0.533-0.105,0.761
		c0,0.432,0.147,0.787,0.442,1.067c0.294,0.279,0.667,0.419,1.117,0.419c0.983,0,1.895-0.373,2.737-1.123
		c0.842-0.749,1.572-1.568,2.191-2.456c0.309-0.431,0.583-0.857,0.821-1.276c0.239-0.419,0.457-0.794,0.655-1.124
		c-0.535-0.863-0.991-1.733-1.37-2.608c-0.38-0.875-0.57-1.822-0.57-2.838c0-1.219,0.323-2.184,0.967-2.895
		c0.645-0.71,1.5-1.066,2.566-1.066c1.094,0,1.963,0.375,2.608,1.125c0.645,0.751,0.967,1.762,0.967,3.033
		c0,0.916-0.204,1.902-0.611,2.957c-0.407,1.056-1.018,2.232-1.831,3.53c0.393,0.203,0.772,0.381,1.137,0.534
		c0.365,0.153,0.744,0.28,1.137,0.381c0.366,0.102,0.73,0.179,1.095,0.229c0.366,0.051,0.746,0.076,1.139,0.076
		c0.055,0,0.105,0,0.148,0c0.041,0,0.091,0,0.147,0c0.113,0,0.225-0.006,0.338-0.019c0.112-0.013,0.252-0.032,0.421-0.058
		l-0.041,0.991l-0.843,0.038c-0.282,0.025-0.562,0.019-0.844-0.019c-0.282-0.038-0.576-0.094-0.885-0.171
		c-0.562-0.126-1.124-0.323-1.685-0.59c-0.562-0.267-1.109-0.591-1.642-0.972c-0.057,0.077-0.12,0.147-0.19,0.209
		c-0.07,0.064-0.132,0.134-0.188,0.21c-1.489,1.52-3.055,2.677-4.696,3.472c-1.642,0.795-3.67,1.193-6.084,1.193
		c-1.571,0-2.794-0.274-3.663-0.819c-0.871-0.546-1.306-1.314-1.306-2.305c0-0.279,0.048-0.59,0.147-0.933
		c0.1-0.342,0.246-0.794,0.444-1.352l3.288-8.226L164.567,178.531z M167.925,185.962c0.306-0.634,0.543-1.238,0.711-1.809
		c0.168-0.572,0.307-1.125,0.418-1.659c0.028-0.33,0.056-0.647,0.084-0.952c0.028-0.305,0.041-0.623,0.041-0.953
		c0-0.761-0.105-1.366-0.313-1.81c-0.209-0.444-0.51-0.667-0.9-0.667c-0.364,0-0.649,0.267-0.858,0.8
		c-0.209,0.534-0.314,1.245-0.314,2.134c0,0.305,0.007,0.591,0.021,0.858c0.014,0.267,0.05,0.54,0.106,0.819
		c0.083,0.483,0.201,0.985,0.355,1.505c0.153,0.521,0.368,1.112,0.648,1.771V185.962z"/>
	<path fill="#010101" d="M192.581,189.793l0.337,0.533c-0.534,0.33-1.054,0.623-1.56,0.877c-0.507,0.254-1.012,0.482-1.518,0.685
		c-1.209,0.458-2.438,0.782-3.689,0.972c-1.251,0.19-2.649,0.286-4.195,0.286c-0.309,0-0.64-0.007-0.991-0.019
		c-0.351-0.013-0.696-0.032-1.033-0.057c-1.153-0.127-2.206-0.431-3.162-0.913c-0.955-0.482-1.433-1.344-1.433-2.587
		c0-0.583,0.098-1.267,0.295-2.054c0.196-0.786,0.491-1.673,0.885-2.663c0.842-2.053,2.1-3.714,3.77-4.982
		c1.671-1.268,3.772-1.902,6.301-1.902c1.291,0,2.275,0.222,2.949,0.666c0.674,0.444,1.011,1.11,1.011,1.996
		c0,0.102-0.008,0.197-0.021,0.285c-0.013,0.09-0.021,0.185-0.021,0.286c-0.198,1.318-1.075,2.592-2.633,3.822
		c-1.559,1.23-3.601,2.276-6.128,3.137c-0.056,0.305-0.098,0.551-0.126,0.742c-0.028,0.19-0.043,0.374-0.043,0.551
		c0,0.025,0,0.057,0,0.095c0,0.039,0,0.07,0,0.095c0,0.811,0.289,1.452,0.865,1.921c0.576,0.469,1.371,0.703,2.382,0.703
		c1.152,0,2.389-0.21,3.71-0.629c1.321-0.419,2.67-1.022,4.047-1.81V189.793z M181.948,187.382c0.338-0.228,0.739-0.552,1.202-0.972
		c0.464-0.419,0.949-0.896,1.456-1.429c0.309-0.305,0.603-0.628,0.884-0.972c0.281-0.343,0.562-0.679,0.843-1.01
		c0.535-0.686,0.976-1.359,1.328-2.02c0.351-0.66,0.528-1.219,0.528-1.678c0-0.254-0.092-0.464-0.274-0.629
		c-0.183-0.165-0.402-0.248-0.655-0.248c-0.084,0-0.161,0.007-0.232,0.019c-0.071,0.013-0.132,0.033-0.189,0.058
		c-0.618,0.229-1.216,0.8-1.792,1.715c-0.577,0.914-1.104,1.905-1.58,2.972c-0.367,0.838-0.683,1.646-0.95,2.421
		c-0.267,0.774-0.457,1.378-0.57,1.809V187.382z"/>
</g>
<g>
	<g>
		<path fill="#FFFFFF" d="M64.485,135.195c0,0,2.931-6.984,5.56-15.747c2.06-6.866,3.993-14.813,5.251-21.132
			c2.863-14.382,3.194-34.818,3.194-34.818s18.647-7.865,38.147-3.922c19.499,3.943,32.171,15.372,32.047,18.672
			c-0.058,1.571-4.433,14.953-7.386,28.871c-3.251,15.318-4.726,33.022-4.726,33.022"/>
		<path fill="#010101" d="M65.279,135.528c0.03-0.07,2.979-7.127,5.591-15.833c1.951-6.503,3.921-14.432,5.271-21.212
			c2.845-14.293,3.207-34.767,3.211-34.972l-0.527,0.78c0.184-0.078,18.641-7.714,37.641-3.871
			c19.845,4.013,31.446,15.442,31.358,17.795c-0.019,0.505-0.772,3.18-1.644,6.276c-1.556,5.531-3.909,13.889-5.726,22.448
			c-3.225,15.195-4.727,32.953-4.741,33.13l1.718,0.143l0,0c0.014-0.176,1.507-17.829,4.71-32.915
			c1.805-8.504,4.148-16.829,5.699-22.339c1.165-4.138,1.681-5.997,1.705-6.679c0.042-1.103-0.78-2.573-2.44-4.372
			c-1.637-1.772-3.921-3.664-6.604-5.47c-6.733-4.531-15.147-7.979-23.693-9.707c-10.216-2.066-20.176-0.877-26.732,0.483
			c-7.1,1.474-11.727,3.408-11.921,3.49l-0.518,0.218l-0.009,0.562c-0.003,0.204-0.363,20.525-3.178,34.664
			c-1.339,6.729-3.295,14.599-5.231,21.053c-2.585,8.614-5.5,15.592-5.529,15.662L65.279,135.528z"/>
	</g>
	<path fill="#FFFFFF" d="M50.2,130.366c0,0,1.542-2.248,5.211,0.028c3.669,2.276,20.842,15.101,69.64,11.145
		c10.069-0.817,19.183-2.993,24.626-1.179c1.597,0.532,5.579,1.314,5.811,6.824l-30.739,2.299l-34.555-4.06l-25.263-6.183
		L50.2,130.366"/>
	<polygon fill="#FFFFFF" points="98.655,115.667 93.206,141.581 105.358,142.059 119.448,142.476 123.758,120.581 105.547,116.103 	
		"/>
	<path fill="#010101" d="M80.091,63.349c0,0,2.547,33.042-13.802,72.658c0,0,5.334,1.991,9.665,2.969
		c2.455,0.553,5.248,0.905,7.808,1.483c5.057,1.139,9.494,1.528,9.861,0.942c0,0,16.608-78.328,16.145-81.597
		C109.768,59.805,99.466,55.431,80.091,63.349z"/>
	<path fill="#010101" d="M135.065,67.229l-15.25,74.661l8.339-0.349l8.418-1.401c0,0,3.527-24.421,5.627-33.494
		c2.101-9.073,7.276-28.529,7.276-28.529S143.306,67.741,135.065,67.229z"/>
	<g>
		<path fill="#FFFFFF" d="M72.016,115.929l0.326,0.415c0.164-0.052,16.783-5.997,36.198-1.237
			c19.756,4.845,29.548,12.276,30.199,13.413c0,0,0.09,0.347,0.085,0.338l0.085-1.097c-1.318-2.662-10.001-8.415-29.695-13.244
			c-20.383-4.998-36.413,0.282-37.118,0.506L72.016,115.929z"/>
	</g>
	<g>
		<path fill="#010101" d="M71.348,115.563L71.348,115.563c0.181-0.058,18.325-5.793,38.153-0.931
			c21.011,5.152,28.85,11.998,29.409,13.128l-0.01-0.304c-0.501-1.012-3.028-3.173-7.394-5.524
			c-3.977-2.142-10.997-5.255-21.854-7.916c-10.457-2.565-20.364-2.172-26.834-1.391c-7.012,0.846-11.62,2.32-11.666,2.334
			L71.348,115.563z"/>
	</g>
	<g>
		<path fill="#010101" d="M97.613,149.24c0,0-29.56-5.115-37.421-9.512c-7.861-4.397-11.571-6.659-9.993-9.363
			c1.578-2.704,11.04,8.279,30.444,11.124c19.403,2.844,43.955,1.763,49.444,1.362c5.489-0.402,22.49-4.305,25.05,2.691
			c2.56,6.995-3.872,11.094-22.882,9.408C113.245,153.264,97.613,149.24,97.613,149.24z"/>
	</g>
</g>
</svg>
