<?xml version="1.0" encoding="utf-8"?>
<!-- Generator: Adobe Illustrator 17.0.0, SVG Export Plug-In . SVG Version: 6.00 Build 0)  -->
<!DOCTYPE svg PUBLIC "-//W3C//DTD SVG 1.1//EN" "http://www.w3.org/Graphics/SVG/1.1/DTD/svg11.dtd">
<svg version="1.1" id="Layer_1" xmlns="http://www.w3.org/2000/svg" xmlns:xlink="http://www.w3.org/1999/xlink" x="0px" y="0px"
	 width="338.719px" height="52.425px" viewBox="0 0 338.719 52.425" enable-background="new 0 0 338.719 52.425"
	 xml:space="preserve">
<g>
	<path fill="#FFFFFF" d="M101.04,34.936l0.17,0.577c-1.183,0.607-2.428,1.104-3.736,1.489c-1.308,0.384-2.655,0.577-4.042,0.577
		c-1.501,0-2.667-0.238-3.497-0.714c-0.83-0.476-1.245-1.15-1.245-2.021c0-0.445,0.125-1.049,0.375-1.808
		c0.25-0.76,0.693-1.879,1.33-3.358c0.933-2.168,1.961-4.275,3.087-6.322c1.126-2.046,2.508-3.981,4.145-5.805
		c-0.705,0.203-1.461,0.679-2.269,1.429c-0.807,0.75-1.621,1.651-2.439,2.705c-0.614,0.811-1.229,1.682-1.843,2.614
		c-0.614,0.932-1.216,1.874-1.807,2.827c-0.977,1.641-1.864,3.227-2.66,4.756c-0.796,1.53-1.399,2.731-1.808,3.602l-6.004,1.671
		l8.016-19.056l0.137-0.517c0-0.081-0.04-0.162-0.12-0.243c-0.08-0.08-0.176-0.121-0.29-0.121c-0.228,0-0.472,0.107-0.734,0.319
		c-0.262,0.213-0.529,0.481-0.801,0.805c-0.205,0.263-0.404,0.547-0.597,0.851c-0.193,0.304-0.381,0.608-0.563,0.912
		c-0.251,0.426-0.483,0.831-0.699,1.216c-0.216,0.385-0.392,0.72-0.529,1.003l-2.388,4.771c-0.273,0.588-0.614,1.242-1.024,1.961
		c-0.41,0.719-0.875,1.454-1.399,2.203c-1.047,1.52-2.28,2.913-3.701,4.179c-1.422,1.266-2.962,1.899-4.623,1.899
		c-0.501,0-0.989-0.066-1.467-0.197c-0.477-0.132-0.944-0.329-1.399-0.592c-0.273-0.162-0.483-0.41-0.631-0.745
		c-0.148-0.334-0.267-0.683-0.358-1.048c-0.045-0.263-0.085-0.517-0.12-0.759c-0.034-0.243-0.062-0.455-0.085-0.638
		c0-0.101,0.023-0.187,0.068-0.258c0.045-0.071,0.102-0.107,0.171-0.107c0.069,0,0.125,0.015,0.17,0.046
		c0.046,0.03,0.092,0.075,0.137,0.137c0.023,0.04,0.046,0.086,0.068,0.137c0.023,0.051,0.058,0.106,0.103,0.167
		c0.296,0.587,0.711,1.129,1.244,1.625c0.535,0.496,1.087,0.866,1.655,1.109c0.227,0.081,0.449,0.147,0.665,0.198
		c0.216,0.051,0.426,0.076,0.631,0.076c0.296,0,0.574-0.041,0.835-0.121c0.262-0.081,0.517-0.212,0.768-0.395
		c0.432-0.344,0.887-0.896,1.365-1.656c0.477-0.76,1.057-1.828,1.74-3.207l1.671-3.374c0.319-0.607,0.677-1.291,1.075-2.051
		c0.398-0.76,0.835-1.545,1.314-2.356c1.046-1.681,2.297-3.231,3.752-4.649c1.456-1.418,3.138-2.128,5.049-2.128
		c1.023,0,1.847,0.239,2.473,0.714c0.625,0.476,0.938,1.098,0.938,1.868c0,0.122-0.012,0.248-0.034,0.38
		c-0.023,0.132-0.045,0.268-0.068,0.41c-0.023,0.082-0.046,0.168-0.069,0.258c-0.023,0.091-0.057,0.178-0.102,0.258l-5.117,11.422
		l0.102,0.03c0.454-0.77,1-1.772,1.637-3.007c0.637-1.235,1.354-2.521,2.15-3.858c1.25-2.086,2.677-3.999,4.279-5.741
		c1.603-1.742,3.314-2.613,5.134-2.613c0.591,0,1.063,0.116,1.416,0.35c0.352,0.233,0.529,0.552,0.529,0.957l-0.136,0.546
		l-3.616,7.622c-0.182,0.426-0.427,0.963-0.733,1.612c-0.307,0.649-0.631,1.349-0.972,2.099c-0.092,0.183-0.171,0.36-0.24,0.532
		c-0.069,0.173-0.148,0.35-0.238,0.532c-0.41,0.953-0.768,1.871-1.075,2.752c-0.307,0.882-0.46,1.566-0.46,2.053
		c0,0.325,0.148,0.582,0.443,0.775c0.296,0.193,0.66,0.289,1.092,0.289c0.659,0,1.489-0.162,2.49-0.486
		c1.001-0.324,2.104-0.769,3.309-1.337V34.936z"/>
	<path fill="#FFFFFF" d="M114.166,34.112c-0.114,0.283-0.194,0.501-0.239,0.652c-0.045,0.151-0.068,0.288-0.068,0.409
		c0,0.323,0.13,0.586,0.392,0.788c0.262,0.202,0.585,0.303,0.972,0.303c0.341,0,0.762-0.066,1.262-0.198
		c0.5-0.131,1.012-0.308,1.535-0.531c0.296-0.121,0.585-0.258,0.87-0.41c0.284-0.152,0.563-0.309,0.836-0.471L120,34.989
		c-0.637,0.466-1.325,0.861-2.064,1.185c-0.74,0.324-1.496,0.577-2.269,0.76c-0.433,0.081-0.853,0.146-1.263,0.197
		c-0.409,0.05-0.819,0.076-1.229,0.076c-0.934,0-1.697-0.101-2.29-0.304c-0.592-0.202-1.082-0.546-1.469-1.033
		c-0.342,0.202-0.672,0.38-0.991,0.532c-0.319,0.152-0.637,0.279-0.957,0.38c-0.456,0.162-0.923,0.273-1.401,0.334
		c-0.479,0.06-0.98,0.091-1.503,0.091c-1.116,0-2.096-0.212-2.939-0.637c-0.843-0.425-1.264-1.213-1.264-2.366
		c0-0.465,0.075-0.975,0.222-1.531c0.148-0.556,0.37-1.118,0.666-1.684c0.273-0.545,0.592-1.076,0.957-1.592
		c0.364-0.516,0.752-0.995,1.162-1.44c0.819-0.869,1.788-1.537,2.904-2.002c1.116-0.465,2.301-0.698,3.554-0.698
		c0.729,0,1.316,0.071,1.76,0.213c0.444,0.142,0.814,0.385,1.11,0.729l5.187-0.911L114.166,34.112z M111.454,26.063
		c-0.307-0.131-0.631-0.197-0.972-0.197c-0.273,0-0.529,0.046-0.768,0.137c-0.239,0.091-0.472,0.237-0.699,0.439
		c-0.252,0.243-0.51,0.582-0.773,1.016c-0.263,0.434-0.566,0.996-0.909,1.682c-0.618,1.213-1.116,2.345-1.493,3.396
		c-0.378,1.051-0.566,1.809-0.566,2.274c0,0.445,0.131,0.799,0.394,1.061c0.263,0.263,0.612,0.394,1.047,0.394
		c0.365,0,0.72-0.071,1.064-0.212c0.343-0.142,0.675-0.293,0.995-0.455c0.068-0.04,0.137-0.081,0.205-0.121
		c0.068-0.04,0.137-0.081,0.205-0.121l-0.102-0.636c0-0.101,0.011-0.232,0.034-0.394c0.023-0.162,0.057-0.323,0.103-0.486
		c0.045-0.121,0.085-0.237,0.119-0.348c0.034-0.111,0.074-0.217,0.12-0.318l2.798-6.548
		C112.029,26.382,111.761,26.194,111.454,26.063z"/>
	<path fill="#FFFFFF" d="M139.377,34.65l0.273,0.365c-1.047,0.769-2.121,1.322-3.224,1.656c-1.103,0.334-2.371,0.501-3.804,0.501
		c-1.046,0-1.888-0.101-2.524-0.304c-0.637-0.202-1.149-0.526-1.535-0.972c-0.774,0.446-1.615,0.775-2.525,0.987
		c-0.91,0.212-1.853,0.319-2.831,0.319c-1.251,0-2.189-0.248-2.814-0.746c-0.626-0.497-0.939-1.243-0.939-2.237
		c0-0.426,0.046-0.867,0.136-1.324c0.091-0.457,0.228-0.918,0.41-1.385c0.659-1.603,1.762-3.069,3.309-4.398
		c1.547-1.329,3.298-1.994,5.254-1.994c0.523,0,1,0.046,1.433,0.137c0.432,0.091,0.841,0.248,1.228,0.471
		c0.068,0.04,0.142,0.086,0.222,0.137c0.08,0.051,0.153,0.096,0.222,0.137l3.309-8.326l5.424-0.881l-6.925,17.524
		c-0.091,0.223-0.153,0.405-0.187,0.547c-0.035,0.141-0.051,0.273-0.051,0.395c0,0.365,0.142,0.643,0.426,0.835
		c0.285,0.193,0.676,0.289,1.178,0.289c0.613,0,1.306-0.142,2.08-0.425c0.773-0.283,1.592-0.709,2.456-1.276V34.65z M131.088,26.183
		c0,0-0.165-0.086-0.495-0.259c-0.33-0.173-0.7-0.259-1.109-0.259c-0.273,0-0.529,0.051-0.768,0.152
		c-0.239,0.101-0.472,0.264-0.699,0.487c-0.341,0.325-0.694,0.812-1.057,1.462c-0.364,0.649-0.773,1.512-1.228,2.588
		c-0.546,1.279-0.91,2.213-1.092,2.801c-0.182,0.589-0.284,1.106-0.307,1.552c0,0.021,0,0.041,0,0.061c0,0.021,0,0.041,0,0.061
		c0,0.447,0.147,0.802,0.443,1.066c0.296,0.264,0.694,0.396,1.194,0.396c0.159,0,0.319-0.01,0.478-0.031
		c0.159-0.02,0.319-0.061,0.478-0.122c0.25-0.08,0.494-0.187,0.734-0.319c0.238-0.132,0.483-0.3,0.733-0.502l-0.068-0.548
		c0-0.02,0-0.04,0-0.061c0-0.101,0.023-0.218,0.068-0.349c0.045-0.132,0.113-0.32,0.205-0.564l2.832-7.093
		C131.201,26.355,131.088,26.183,131.088,26.183z"/>
	<path fill="#FFFFFF" d="M152.787,34.624l0.273,0.365c-1.228,0.77-2.496,1.332-3.803,1.686c-1.308,0.354-2.701,0.531-4.179,0.531
		c-0.341,0-0.705-0.01-1.091-0.03c-0.387-0.021-0.784-0.051-1.194-0.091c-0.978-0.121-1.865-0.395-2.661-0.82
		c-0.796-0.425-1.193-1.114-1.193-2.065c0-0.182,0.012-0.369,0.034-0.562c0.023-0.192,0.045-0.379,0.068-0.562
		c0.363-1.924,1.488-3.695,3.374-5.315c1.885-1.62,3.93-2.501,6.134-2.643c0.068,0,0.142,0,0.221,0c0.08,0,0.165,0,0.256,0
		c0.932,0,1.641,0.203,2.13,0.608c0.489,0.405,0.733,0.992,0.733,1.761c0,0.102-0.006,0.208-0.017,0.32
		c-0.012,0.111-0.029,0.227-0.051,0.349c-0.159,0.952-0.575,1.838-1.246,2.659c-0.671,0.82-1.404,1.322-2.2,1.503
		c-0.091,0.021-0.177,0.036-0.256,0.046c-0.08,0.01-0.165,0.015-0.256,0.015c-0.387,0-0.717-0.121-0.99-0.365
		c-0.272-0.243-0.409-0.526-0.409-0.851c0-0.547,0.233-1.013,0.699-1.397c0.466-0.384,0.984-0.739,1.552-1.063
		c0.09-0.04,0.187-0.091,0.29-0.152c0.102-0.061,0.21-0.121,0.324-0.182c0.432-0.264,0.808-0.532,1.126-0.805
		c0.318-0.273,0.477-0.582,0.477-0.927c0-0.243-0.097-0.445-0.29-0.607c-0.193-0.162-0.425-0.243-0.698-0.243
		c-1.089,0-2.071,0.527-2.945,1.58c-0.874,1.053-1.572,2.207-2.093,3.462c-0.318,0.749-0.562,1.478-0.733,2.186
		c-0.17,0.709-0.255,1.306-0.255,1.792c0,0.587,0.199,1.038,0.597,1.352c0.397,0.314,0.983,0.471,1.757,0.471
		c0.068,0,0.13,0,0.187,0c0.057,0,0.108,0,0.154,0c0.887-0.04,1.807-0.213,2.763-0.517c0.955-0.304,2.092-0.79,3.411-1.458V34.624z"
		/>
	<path fill="#FFFFFF" d="M166.39,34.112c-0.114,0.283-0.194,0.501-0.239,0.652c-0.046,0.151-0.068,0.288-0.068,0.409
		c0,0.323,0.131,0.586,0.392,0.788c0.261,0.202,0.586,0.303,0.973,0.303c0.341,0,0.762-0.066,1.262-0.198
		c0.5-0.131,1.011-0.308,1.535-0.531c0.296-0.121,0.586-0.258,0.87-0.41c0.284-0.152,0.563-0.309,0.836-0.471l0.272,0.334
		c-0.637,0.466-1.324,0.861-2.063,1.185c-0.74,0.324-1.495,0.577-2.268,0.76c-0.433,0.081-0.853,0.146-1.263,0.197
		c-0.41,0.05-0.819,0.076-1.229,0.076c-0.934,0-1.697-0.101-2.29-0.304c-0.593-0.202-1.082-0.546-1.469-1.033
		c-0.341,0.202-0.672,0.38-0.991,0.532c-0.319,0.152-0.638,0.279-0.957,0.38c-0.456,0.162-0.923,0.273-1.401,0.334
		c-0.479,0.06-0.98,0.091-1.503,0.091c-1.116,0-2.096-0.212-2.939-0.637c-0.843-0.425-1.264-1.213-1.264-2.366
		c0-0.465,0.074-0.975,0.222-1.531c0.148-0.556,0.371-1.118,0.667-1.684c0.273-0.545,0.592-1.076,0.957-1.592
		c0.364-0.516,0.752-0.995,1.162-1.44c0.819-0.869,1.787-1.537,2.904-2.002c1.116-0.465,2.301-0.698,3.554-0.698
		c0.728,0,1.316,0.071,1.76,0.213c0.444,0.142,0.814,0.385,1.11,0.729l5.187-0.911L166.39,34.112z M163.678,26.063
		c-0.307-0.131-0.631-0.197-0.972-0.197c-0.273,0-0.529,0.046-0.768,0.137c-0.239,0.091-0.472,0.237-0.699,0.439
		c-0.252,0.243-0.51,0.582-0.773,1.016c-0.263,0.434-0.566,0.996-0.909,1.682c-0.618,1.213-1.115,2.345-1.493,3.396
		c-0.377,1.051-0.566,1.809-0.566,2.274c0,0.445,0.132,0.799,0.394,1.061c0.263,0.263,0.612,0.394,1.047,0.394
		c0.366,0,0.721-0.071,1.064-0.212c0.343-0.142,0.675-0.293,0.995-0.455c0.069-0.04,0.137-0.081,0.205-0.121
		c0.068-0.04,0.137-0.081,0.205-0.121l-0.102-0.636c0-0.101,0.011-0.232,0.034-0.394c0.022-0.162,0.057-0.323,0.102-0.486
		c0.046-0.121,0.085-0.237,0.12-0.348c0.034-0.111,0.073-0.217,0.12-0.318l2.797-6.548
		C164.252,26.382,163.985,26.194,163.678,26.063z"/>
	<path fill="#FFFFFF" d="M182.926,25.083l-0.375,1.003c0.431-0.02,0.795-0.045,1.091-0.076c0.296-0.03,0.591-0.056,0.887-0.076
		c0.067,0,0.142,0,0.221,0c0.08,0,0.165,0,0.257,0c1.523,0,2.705,0.31,3.547,0.928c0.841,0.618,1.262,1.486,1.262,2.601
		c0,1.46-0.551,2.723-1.654,3.788c-1.103,1.064-2.314,1.932-3.631,2.601c-0.091,0.061-0.193,0.117-0.307,0.168
		c-0.114,0.051-0.216,0.096-0.307,0.137c0.659,0.284,1.301,0.506,1.926,0.668c0.625,0.162,1.188,0.243,1.688,0.243
		c0.772,0,1.574-0.197,2.404-0.592c0.83-0.395,1.768-1.017,2.814-1.868l0.376,0.364c-0.091,0.082-0.177,0.152-0.256,0.213
		c-0.08,0.061-0.154,0.122-0.222,0.182c-0.864,0.607-1.746,1.144-2.644,1.61c-0.898,0.465-1.928,0.698-3.086,0.698
		c-0.773,0-1.541-0.071-2.302-0.212c-0.762-0.142-1.518-0.355-2.267-0.638c-0.5,0.162-0.99,0.288-1.467,0.379
		c-0.477,0.091-0.943,0.167-1.398,0.228c-0.25,0.02-0.489,0.04-0.717,0.06c-0.227,0.02-0.466,0.03-0.716,0.03l-1.501,3.949
		l-5.457,1.519l2.353-5.924c-0.568-0.144-0.994-0.369-1.278-0.677c-0.285-0.308-0.426-0.657-0.426-1.048
		c0-0.492,0.193-0.841,0.579-1.047c0.387-0.205,0.819-0.339,1.297-0.4c0.204-0.02,0.397-0.035,0.579-0.046
		c0.182-0.01,0.353-0.016,0.512-0.016l2.421-6.204c-0.955,0.585-1.819,1.352-2.592,2.3c-0.773,0.948-1.363,1.977-1.772,3.087
		l-0.102-0.999c0-0.988,0.381-1.861,1.142-2.618c0.762-0.757,1.608-1.387,2.541-1.892c0.182-0.101,0.358-0.197,0.529-0.288
		c0.17-0.09,0.346-0.176,0.529-0.257l0.375-0.968L182.926,25.083z M173.428,34.758c-0.285,0.252-0.426,0.566-0.426,0.942
		c0,0.223,0.051,0.41,0.153,0.562c0.103,0.152,0.256,0.289,0.461,0.41l0.887-2.322C174.071,34.371,173.712,34.507,173.428,34.758z
		 M179.208,37.007c0.285-0.04,0.563-0.112,0.836-0.213c0.182-0.061,0.363-0.132,0.546-0.213c0.182-0.08,0.364-0.182,0.546-0.304
		c-0.205-0.121-0.415-0.227-0.631-0.319c-0.216-0.091-0.438-0.177-0.665-0.258c-0.159-0.061-0.313-0.121-0.46-0.182
		c-0.148-0.06-0.29-0.121-0.426-0.182l-0.682,1.701C178.612,37.057,178.924,37.047,179.208,37.007z M179.972,34.698
		c0.238,0.071,0.472,0.147,0.7,0.228c0.227,0.081,0.461,0.157,0.7,0.228c0.238,0.071,0.472,0.147,0.699,0.228
		c0.341-0.425,0.653-0.865,0.937-1.321c0.285-0.455,0.541-0.916,0.768-1.382c0.364-0.709,0.643-1.397,0.836-2.066
		c0.193-0.668,0.291-1.276,0.291-1.823c0-0.688-0.177-1.225-0.529-1.61c-0.353-0.385-0.824-0.578-1.415-0.578l-0.683,0.031
		l-3.002,7.807C179.5,34.541,179.733,34.627,179.972,34.698z"/>
</g>
<g>
	<path fill="#FFFFFF" d="M222.274,34.796l0.202,0.489c-1.645,0.713-3.357,1.283-5.137,1.711c-1.78,0.427-3.594,0.642-5.441,0.642
		c-3.267,0-5.87-0.77-7.808-2.311c-1.938-1.539-2.906-3.605-2.906-6.196c0-3.366,1.537-6.349,4.613-8.95
		c3.075-2.601,6.607-3.902,10.594-3.902c1.96,0,3.481,0.475,4.562,1.423c1.081,0.948,1.622,2.278,1.622,3.991
		c0,0.163-0.006,0.326-0.017,0.49c-0.011,0.163-0.028,0.326-0.05,0.489c-0.292,2.263-1.45,4.358-3.473,6.285
		c-2.023,1.927-4.214,3.033-6.574,3.318c-0.158,0.02-0.32,0.036-0.489,0.047c-0.169,0.01-0.332,0.014-0.489,0.014
		c-1.034,0-1.878-0.229-2.529-0.687c-0.652-0.458-0.978-1.043-0.978-1.756c0-0.387,0.079-0.8,0.237-1.237
		c0.158-0.438,0.372-0.881,0.642-1.329c0.338-0.529,0.738-1.053,1.2-1.573c0.462-0.519,0.974-0.982,1.537-1.39
		c0.834-0.61,1.741-1.16,2.721-1.649c0.98-0.489,2.055-0.927,3.228-1.314l0.203,0.428c-0.496,0.245-1.082,0.561-1.758,0.948
		c-0.676,0.387-1.374,0.824-2.095,1.313c-0.766,0.529-1.51,1.104-2.231,1.725c-0.721,0.621-1.329,1.248-1.825,1.879
		c-0.315,0.407-0.569,0.82-0.76,1.237c-0.192,0.417-0.287,0.819-0.287,1.206c0,0.407,0.14,0.743,0.421,1.007
		c0.281,0.265,0.645,0.397,1.095,0.397c0.54,0,1.123-0.132,1.753-0.397c0.629-0.265,1.258-0.632,1.887-1.101
		c0.875-0.631,1.729-1.401,2.56-2.309c0.831-0.907,1.573-1.83,2.225-2.768c0.651-0.958,1.174-1.881,1.566-2.768
		c0.393-0.887,0.59-1.646,0.59-2.279c0-0.897-0.316-1.636-0.947-2.218c-0.631-0.581-1.42-0.872-2.365-0.872
		c-2.05,0-3.977,0.965-5.779,2.892c-1.802,1.929-3.255,4.056-4.359,6.381c-0.586,1.244-1.048,2.464-1.386,3.657
		c-0.338,1.194-0.507,2.229-0.507,3.106c0,1.449,0.569,2.484,1.707,3.106c1.138,0.622,2.383,0.964,3.735,1.025
		c0.089,0.02,0.185,0.03,0.287,0.03c0.102,0,0.208,0,0.321,0c1.847,0,3.662-0.218,5.442-0.657c1.78-0.438,3.526-0.952,5.239-1.543
		V34.796z"/>
	<path fill="#FFFFFF" d="M239.51,32.151l0.135,0.489c-0.27,0.102-0.518,0.183-0.743,0.244c-0.226,0.061-0.429,0.112-0.609,0.152
		c-0.181,0.021-0.367,0.036-0.558,0.047c-0.191,0.01-0.399,0.015-0.625,0.015c-0.293,0-0.558-0.01-0.794-0.03
		c-0.237-0.02-0.467-0.051-0.692-0.092c-0.158-0.02-0.32-0.051-0.489-0.091c-0.169-0.041-0.343-0.092-0.522-0.153
		c-0.966,1.569-2.073,2.715-3.321,3.438c-1.247,0.724-2.725,1.086-4.434,1.086c-1.731,0-3.007-0.285-3.827-0.853
		c-0.82-0.568-1.23-1.442-1.23-2.62c0-0.264,0.017-0.523,0.05-0.777c0.034-0.254,0.073-0.512,0.118-0.777
		c0.315-1.259,0.969-2.468,1.96-3.625c0.992-1.158,2.141-2.041,3.448-2.651c0.158-0.081,0.321-0.153,0.49-0.214
		c0.169-0.061,0.332-0.122,0.49-0.183c0.36-0.122,0.704-0.224,1.031-0.306c0.326-0.081,0.592-0.122,0.795-0.122
		c0.112,0,0.196,0.021,0.253,0.061c0.056,0.041,0.085,0.092,0.085,0.153c0,0.041-0.214,0.386-0.642,1.036
		c-0.428,0.65-0.89,1.452-1.386,2.407c-0.293,0.508-0.569,1.042-0.828,1.6c-0.259,0.559-0.479,1.133-0.659,1.722
		c-0.181,0.487-0.321,0.98-0.423,1.478c-0.102,0.498-0.152,0.979-0.152,1.447c0,0.488,0.123,0.879,0.369,1.173
		c0.246,0.294,0.57,0.442,0.973,0.442c0.739,0,1.404-0.294,1.997-0.884c0.594-0.589,1.104-1.229,1.532-1.92
		c0.225-0.366,0.422-0.726,0.591-1.082c0.169-0.355,0.321-0.665,0.457-0.93c-0.632-0.69-1.11-1.397-1.436-2.118
		c-0.327-0.722-0.49-1.479-0.49-2.271c0-1.015,0.242-1.823,0.726-2.423c0.484-0.6,1.12-0.899,1.907-0.899
		c0.923,0,1.654,0.34,2.194,1.019c0.54,0.68,0.811,1.598,0.811,2.754c0,0.751-0.096,1.487-0.287,2.207
		c-0.191,0.72-0.5,1.436-0.927,2.145c0.179,0.061,0.342,0.112,0.489,0.152c0.146,0.041,0.287,0.081,0.422,0.122
		c0.179,0.041,0.359,0.066,0.54,0.076c0.18,0.01,0.382,0.014,0.608,0.014c0.203,0,0.389-0.004,0.557-0.014
		c0.169-0.01,0.332-0.026,0.491-0.047c0.225-0.02,0.455-0.061,0.692-0.122c0.237-0.061,0.524-0.142,0.862-0.244V32.151z
		 M232.582,31.023c0.135-0.55,0.253-1.11,0.354-1.68c0.101-0.571,0.151-1.14,0.151-1.711c0-0.896-0.079-1.583-0.236-2.062
		c-0.157-0.479-0.393-0.718-0.707-0.718c-0.292,0-0.528,0.173-0.707,0.52c-0.18,0.346-0.27,0.804-0.27,1.374
		c0,0.244,0.016,0.494,0.05,0.748c0.034,0.255,0.085,0.514,0.152,0.779c0.112,0.53,0.274,1.039,0.488,1.528
		c0.214,0.489,0.455,0.906,0.724,1.252V31.023z"/>
	<path fill="#FFFFFF" d="M243.769,34.265c-0.068,0.224-0.124,0.423-0.169,0.596c-0.045,0.173-0.067,0.32-0.067,0.442
		c0,0.325,0.124,0.59,0.372,0.793c0.248,0.204,0.563,0.305,0.946,0.305c0.518,0,1.154-0.143,1.909-0.428
		c0.755-0.285,1.583-0.693,2.485-1.222l0.304,0.336c-0.879,0.591-1.797,1.06-2.755,1.406c-0.958,0.346-1.921,0.58-2.89,0.702
		c-0.203,0.02-0.412,0.036-0.625,0.047c-0.214,0.009-0.434,0.015-0.659,0.015c-1.217,0-2.153-0.199-2.806-0.595
		c-0.653-0.397-0.98-0.971-0.98-1.724c0-0.183,0.017-0.396,0.051-0.641c0.034-0.244,0.095-0.498,0.186-0.763
		c0.022-0.06,0.045-0.127,0.067-0.199c0.022-0.071,0.045-0.137,0.068-0.198l5.949-15.407l5.407-1.069L243.769,34.265z"/>
	<path fill="#FFFFFF" d="M254.145,34.265c-0.068,0.224-0.125,0.423-0.169,0.596c-0.045,0.173-0.067,0.32-0.067,0.442
		c0,0.325,0.124,0.59,0.372,0.793c0.248,0.204,0.563,0.305,0.946,0.305c0.518,0,1.154-0.143,1.909-0.428
		c0.755-0.285,1.583-0.693,2.485-1.222l0.304,0.336c-0.879,0.591-1.797,1.06-2.755,1.406c-0.958,0.346-1.921,0.58-2.89,0.702
		c-0.203,0.02-0.412,0.036-0.626,0.047c-0.214,0.009-0.434,0.015-0.658,0.015c-1.217,0-2.153-0.199-2.806-0.595
		c-0.653-0.397-0.979-0.971-0.979-1.724c0-0.183,0.017-0.396,0.051-0.641c0.033-0.244,0.096-0.498,0.186-0.763
		c0.022-0.06,0.045-0.127,0.067-0.199c0.022-0.071,0.045-0.137,0.068-0.198l5.949-15.407l5.408-1.069L254.145,34.265z"/>
	<path fill="#FFFFFF" d="M273.324,34.568l0.271,0.427c-0.428,0.265-0.846,0.499-1.251,0.703c-0.406,0.204-0.812,0.387-1.217,0.549
		c-0.969,0.367-1.955,0.627-2.957,0.779c-1.003,0.152-2.123,0.229-3.363,0.229c-0.248,0-0.513-0.006-0.795-0.015
		c-0.281-0.011-0.557-0.026-0.827-0.046c-0.924-0.102-1.769-0.345-2.535-0.732c-0.766-0.386-1.149-1.077-1.149-2.074
		c0-0.467,0.08-1.016,0.236-1.647c0.158-0.63,0.394-1.341,0.71-2.135c0.675-1.646,1.683-2.977,3.023-3.994
		c1.34-1.017,3.023-1.525,5.05-1.525c1.036,0,1.823,0.178,2.364,0.534c0.54,0.356,0.811,0.89,0.811,1.6
		c0,0.082-0.006,0.158-0.017,0.229c-0.011,0.072-0.017,0.148-0.017,0.229c-0.158,1.057-0.862,2.078-2.111,3.064
		c-1.249,0.986-2.887,1.824-4.912,2.515c-0.045,0.244-0.079,0.442-0.101,0.595c-0.022,0.152-0.034,0.3-0.034,0.442
		c0,0.02,0,0.046,0,0.076c0,0.031,0,0.056,0,0.076c0,0.65,0.231,1.164,0.693,1.54c0.462,0.376,1.099,0.563,1.909,0.563
		c0.924,0,1.916-0.168,2.974-0.504c1.059-0.336,2.141-0.819,3.245-1.451V34.568z M264.8,32.635c0.27-0.183,0.591-0.443,0.963-0.779
		c0.372-0.336,0.76-0.718,1.166-1.146c0.248-0.244,0.484-0.504,0.709-0.779c0.226-0.275,0.451-0.544,0.677-0.809
		c0.428-0.55,0.782-1.09,1.064-1.619c0.281-0.529,0.423-0.977,0.423-1.345c0-0.204-0.073-0.372-0.22-0.504
		c-0.146-0.132-0.321-0.199-0.524-0.199c-0.067,0-0.129,0.005-0.186,0.015c-0.057,0.01-0.107,0.026-0.152,0.046
		c-0.496,0.184-0.975,0.642-1.437,1.375c-0.462,0.733-0.885,1.527-1.267,2.382c-0.294,0.672-0.547,1.319-0.761,1.941
		c-0.214,0.621-0.367,1.105-0.456,1.45V32.635z"/>
	<path fill="#FFFFFF" d="M282.467,32.253c-0.09,0.021-0.175,0.036-0.254,0.046c-0.079,0.01-0.164,0.015-0.254,0.015
		c-0.383,0-0.709-0.122-0.98-0.366c-0.27-0.245-0.405-0.529-0.405-0.855c0-0.549,0.231-1.018,0.693-1.405
		c0.461-0.387,0.974-0.743,1.538-1.07c0.09-0.04,0.185-0.091,0.287-0.152c0.101-0.061,0.209-0.123,0.321-0.184
		c0.429-0.265,0.8-0.534,1.115-0.81c0.315-0.275,0.473-0.585,0.473-0.932c0-0.245-0.096-0.447-0.287-0.611
		c-0.191-0.162-0.422-0.244-0.691-0.244c-1.08,0-2.053,0.53-2.917,1.59c-0.865,1.059-1.557,2.221-2.074,3.485
		c-0.315,0.755-0.557,1.488-0.725,2.201c-0.169,0.713-0.252,1.315-0.252,1.803c0,0.592,0.197,1.045,0.591,1.361
		c0.395,0.316,0.974,0.474,1.741,0.474c0.067,0,0.128,0,0.185,0c0.057,0,0.107,0,0.153,0c0.878-0.041,1.79-0.214,2.738-0.519
		c0.946-0.305,2.073-0.795,3.38-1.467v-0.03l0.271,0.366c-1.217,0.774-2.473,1.339-3.769,1.695c-1.296,0.357-2.676,0.535-4.14,0.535
		c-0.338,0-0.699-0.011-1.082-0.03c-0.383-0.021-0.777-0.052-1.183-0.092c-0.969-0.123-1.848-0.397-2.636-0.825
		c-0.789-0.429-1.183-1.121-1.183-2.079c0-0.184,0.011-0.372,0.034-0.566c0.023-0.194,0.046-0.382,0.068-0.566
		c0.36-1.935,1.474-3.72,3.341-5.35c1.867-1.631,3.893-2.517,6.076-2.66c0.066,0,0.14,0,0.219,0c0.079,0,0.163,0,0.253,0
		c0.923,0,1.626,0.204,2.11,0.611c0.484,0.408,0.726,0.998,0.726,1.772c0,0.102-0.006,0.209-0.017,0.321
		c-0.011,0.112-0.028,0.229-0.051,0.352c-0.157,0.957-0.569,1.848-1.234,2.673C283.981,31.566,283.255,32.07,282.467,32.253"/>
	<path fill="#FFFFFF" d="M297.007,19.642l-2.535,6.507h2.569l-0.946,1.23h-2.061l-2.704,6.966c-0.09,0.224-0.153,0.418-0.186,0.581
		c-0.034,0.163-0.051,0.326-0.051,0.489c0,0.326,0.112,0.58,0.338,0.764c0.225,0.183,0.529,0.275,0.913,0.275
		c0.315,0,0.635-0.035,0.963-0.106c0.326-0.072,0.67-0.158,1.031-0.26c0.36-0.122,0.726-0.265,1.098-0.428
		c0.372-0.163,0.727-0.335,1.065-0.519c0.157-0.081,0.321-0.162,0.49-0.244c0.169-0.082,0.32-0.163,0.456-0.245l0.271,0.336
		c-0.699,0.448-1.415,0.83-2.146,1.146c-0.733,0.316-1.47,0.565-2.214,0.749c-0.496,0.101-0.991,0.183-1.487,0.245
		c-0.495,0.06-0.98,0.092-1.453,0.092c-1.262,0-2.248-0.214-2.958-0.642c-0.709-0.428-1.064-1.019-1.064-1.773
		c0-0.163,0.023-0.342,0.067-0.535c0.045-0.193,0.102-0.392,0.169-0.596c0-0.04,0.006-0.082,0.017-0.122
		c0.012-0.041,0.029-0.082,0.051-0.123l2.366-6.115h-1.926l0.946-1.192h1.419l2.129-5.53L297.007,19.642z"/>
	<path fill="#FFFFFF" d="M302.354,34.209c-0.068,0.224-0.124,0.433-0.17,0.626c-0.045,0.194-0.067,0.382-0.067,0.565
		c0,0.326,0.113,0.581,0.338,0.764c0.226,0.183,0.552,0.275,0.98,0.275c0.608,0,1.189-0.127,1.741-0.382
		c0.551-0.254,1.075-0.545,1.571-0.871c0.18-0.101,0.354-0.203,0.523-0.305c0.169-0.102,0.344-0.204,0.524-0.306l0.303,0.275
		c-1.014,0.815-2.045,1.4-3.092,1.757c-1.048,0.356-2.179,0.534-3.397,0.534c-1.352,0-2.41-0.188-3.177-0.565
		c-0.766-0.377-1.148-0.912-1.148-1.604c0-0.163,0.023-0.341,0.067-0.535c0.046-0.193,0.091-0.391,0.136-0.595
		c0-0.041,0.005-0.082,0.016-0.123c0.011-0.04,0.028-0.082,0.051-0.123l3.041-7.576l5.408-1.008L302.354,34.209z M307.259,18.85
		c0.552,0.499,0.828,1.106,0.828,1.818c0,0.693-0.276,1.289-0.828,1.787c-0.553,0.499-1.223,0.748-2.011,0.748
		c-0.767,0-1.426-0.251-1.978-0.752c-0.552-0.502-0.828-1.101-0.828-1.799c0-0.717,0.276-1.326,0.828-1.828
		c0.552-0.502,1.211-0.753,1.978-0.753C306.036,18.092,306.706,18.351,307.259,18.85z"/>
	<path fill="#FFFFFF" d="M315.992,25.539l-3.549,8.732c-0.113,0.285-0.197,0.539-0.254,0.763c-0.057,0.224-0.084,0.428-0.084,0.61
		c0,0.346,0.117,0.631,0.354,0.856c0.236,0.224,0.535,0.335,0.895,0.335c0.788,0,1.519-0.299,2.194-0.9
		c0.676-0.601,1.26-1.257,1.757-1.969c0.248-0.346,0.467-0.687,0.658-1.023c0.191-0.336,0.366-0.637,0.525-0.901
		c-0.429-0.692-0.795-1.389-1.099-2.091c-0.304-0.702-0.456-1.461-0.456-2.275c0-0.977,0.259-1.751,0.775-2.32
		c0.517-0.569,1.202-0.855,2.057-0.855c0.877,0,1.573,0.301,2.09,0.902c0.517,0.602,0.775,1.412,0.775,2.431
		c0,0.734-0.163,1.524-0.49,2.371c-0.326,0.846-0.816,1.79-1.468,2.83c0.315,0.163,0.619,0.306,0.912,0.428
		c0.292,0.123,0.596,0.225,0.912,0.305c0.293,0.082,0.585,0.144,0.878,0.184c0.293,0.041,0.598,0.061,0.913,0.061
		c0.045,0,0.084,0,0.118,0c0.033,0,0.074,0,0.117,0c0.091,0,0.181-0.005,0.271-0.015c0.09-0.01,0.202-0.025,0.337-0.046
		l-0.033,0.794l-0.676,0.03c-0.226,0.02-0.451,0.015-0.677-0.015c-0.225-0.03-0.462-0.076-0.709-0.137
		c-0.451-0.101-0.901-0.259-1.351-0.473c-0.451-0.214-0.889-0.473-1.316-0.78c-0.046,0.062-0.097,0.118-0.153,0.168
		c-0.056,0.052-0.107,0.108-0.151,0.169c-1.193,1.219-2.449,2.146-3.764,2.783c-1.316,0.637-2.942,0.956-4.877,0.956
		c-1.26,0-2.239-0.219-2.936-0.656c-0.698-0.438-1.046-1.054-1.046-1.848c0-0.224,0.039-0.473,0.118-0.748
		c0.08-0.275,0.197-0.636,0.356-1.084l2.635-6.594L315.992,25.539z M318.684,31.497c0.245-0.509,0.435-0.992,0.57-1.451
		c0.134-0.458,0.246-0.902,0.335-1.33c0.023-0.264,0.045-0.519,0.067-0.763c0.022-0.244,0.033-0.499,0.033-0.764
		c0-0.61-0.084-1.095-0.251-1.451c-0.168-0.356-0.409-0.534-0.721-0.534c-0.291,0-0.52,0.214-0.688,0.641
		c-0.168,0.428-0.252,0.998-0.252,1.711c0,0.245,0.005,0.474,0.016,0.688c0.011,0.214,0.04,0.433,0.085,0.657
		c0.067,0.387,0.161,0.79,0.284,1.207c0.123,0.418,0.296,0.891,0.52,1.42V31.497z"/>
	<path fill="#FFFFFF" d="M338.449,34.568l0.27,0.427c-0.428,0.265-0.846,0.499-1.25,0.703c-0.406,0.204-0.812,0.387-1.217,0.549
		c-0.969,0.367-1.955,0.627-2.957,0.779c-1.003,0.152-2.123,0.229-3.363,0.229c-0.249,0-0.513-0.006-0.795-0.015
		c-0.282-0.011-0.557-0.026-0.828-0.046c-0.924-0.102-1.769-0.345-2.535-0.732c-0.766-0.386-1.149-1.077-1.149-2.074
		c0-0.467,0.079-1.016,0.237-1.647c0.157-0.63,0.394-1.341,0.71-2.135c0.675-1.646,1.683-2.977,3.022-3.994
		c1.34-1.017,3.024-1.525,5.05-1.525c1.035,0,1.824,0.178,2.364,0.534c0.541,0.356,0.811,0.89,0.811,1.6
		c0,0.082-0.006,0.158-0.017,0.229c-0.011,0.072-0.017,0.148-0.017,0.229c-0.158,1.057-0.862,2.078-2.111,3.064
		c-1.249,0.986-2.887,1.824-4.912,2.515c-0.045,0.244-0.079,0.442-0.101,0.595c-0.022,0.152-0.034,0.3-0.034,0.442
		c0,0.02,0,0.046,0,0.076c0,0.031,0,0.056,0,0.076c0,0.65,0.231,1.164,0.693,1.54c0.461,0.376,1.098,0.563,1.909,0.563
		c0.924,0,1.915-0.168,2.974-0.504c1.059-0.336,2.141-0.819,3.245-1.451V34.568z M329.925,32.635
		c0.271-0.183,0.592-0.443,0.964-0.779c0.372-0.336,0.76-0.718,1.167-1.146c0.247-0.244,0.483-0.504,0.709-0.779
		c0.225-0.275,0.451-0.544,0.676-0.809c0.428-0.55,0.783-1.09,1.064-1.619c0.282-0.529,0.423-0.977,0.423-1.345
		c0-0.204-0.074-0.372-0.22-0.504c-0.146-0.132-0.321-0.199-0.525-0.199c-0.067,0-0.129,0.005-0.186,0.015
		c-0.056,0.01-0.106,0.026-0.151,0.046c-0.495,0.184-0.975,0.642-1.437,1.375c-0.462,0.733-0.885,1.527-1.267,2.382
		c-0.294,0.672-0.548,1.319-0.761,1.941c-0.215,0.621-0.367,1.105-0.457,1.45V32.635z"/>
</g>
<g>
	<g>
		<path fill="#FFFFFF" d="M7.856,41.623c0,0,1.573-3.747,2.983-8.449c1.105-3.684,2.143-7.948,2.817-11.338
			C15.192,14.12,15.37,3.156,15.37,3.156s10.005-4.22,20.467-2.104c10.462,2.116,17.261,8.248,17.194,10.018
			c-0.031,0.843-2.378,8.023-3.963,15.49c-1.744,8.218-2.536,17.717-2.536,17.717"/>
		<path fill="#FFFFFF" d="M8.282,41.802c0.016-0.038,1.598-3.824,3-8.495c1.047-3.489,2.104-7.743,2.828-11.38
			c1.526-7.669,1.721-18.653,1.723-18.763L15.55,3.582c0.099-0.042,10.001-4.139,20.195-2.077
			c10.647,2.153,16.871,8.285,16.824,9.548c-0.01,0.271-0.414,1.706-0.882,3.367c-0.835,2.967-2.097,7.452-3.072,12.044
			c-1.731,8.152-2.536,17.68-2.544,17.775l0.921,0.077l0,0c0.008-0.095,0.809-9.566,2.527-17.66
			c0.968-4.563,2.226-9.029,3.058-11.985c0.625-2.22,0.902-3.218,0.915-3.583c0.022-0.592-0.419-1.381-1.309-2.346
			C51.305,7.79,50.08,6.775,48.64,5.806c-3.612-2.431-8.127-4.281-12.712-5.208C30.447-0.51,25.104,0.127,21.586,0.858
			c-3.809,0.791-6.292,1.828-6.396,1.872l-0.278,0.117l-0.005,0.301c-0.002,0.109-0.195,11.012-1.705,18.598
			c-0.719,3.61-1.768,7.833-2.807,11.295c-1.387,4.622-2.951,8.366-2.967,8.403L8.282,41.802z"/>
	</g>
	<path fill="#FFFFFF" d="M0.192,39.032c0,0,0.827-1.206,2.796,0.015c1.968,1.221,11.182,8.102,37.364,5.979
		c5.402-0.438,10.292-1.606,13.212-0.633c0.857,0.285,2.993,0.705,3.118,3.661l-16.492,1.234l-18.54-2.178L8.095,43.793
		L0.192,39.032"/>
	<polygon fill="#FFFFFF" points="26.189,31.146 23.265,45.05 29.785,45.306 37.345,45.53 39.657,33.783 29.887,31.38 	"/>
	<path fill="#010101" d="M16.229,3.076c0,0,1.366,17.728-7.405,38.983c0,0,2.862,1.069,5.185,1.593
		c1.317,0.297,2.815,0.486,4.189,0.796c2.713,0.611,5.094,0.82,5.291,0.505c0,0,8.91-42.025,8.662-43.779
		C32.151,1.175,26.624-1.172,16.229,3.076z"/>
	<path fill="#010101" d="M45.724,5.158l-8.182,40.057l4.474-0.187l4.516-0.752c0,0,1.892-13.102,3.019-17.97
		c1.127-4.868,3.904-15.307,3.904-15.307S50.145,5.433,45.724,5.158z"/>
	<g>
		<path fill="#FFFFFF" d="M11.897,31.286l0.175,0.223c0.088-0.028,9.005-3.218,19.421-0.664c10.6,2.599,15.854,6.586,16.203,7.196
			c0,0,0.048,0.186,0.046,0.181l0.045-0.588c-0.707-1.428-5.365-4.515-15.932-7.106C20.919,27.847,12.318,30.68,11.94,30.8
			L11.897,31.286z"/>
	</g>
	<g>
		<path fill="#010101" d="M11.538,31.09L11.538,31.09c0.097-0.031,9.832-3.108,20.47-0.499c11.273,2.764,15.479,6.437,15.778,7.044
			l-0.005-0.163c-0.268-0.543-1.624-1.702-3.967-2.964c-2.134-1.149-5.9-2.819-11.725-4.247c-5.61-1.376-10.926-1.165-14.397-0.747
			c-3.762,0.454-6.234,1.245-6.259,1.252L11.538,31.09z"/>
	</g>
	<g>
		<path fill="#010101" d="M25.63,49.159c0,0-15.86-2.744-20.077-5.103c-4.218-2.359-6.208-3.573-5.361-5.023
			c0.847-1.45,5.923,4.442,16.334,5.968c10.41,1.526,23.583,0.946,26.528,0.731c2.945-0.215,12.067-2.31,13.44,1.444
			c1.374,3.753-2.078,5.952-12.277,5.048C34.017,51.318,25.63,49.159,25.63,49.159z"/>
	</g>
</g>
</svg>
